<?xml version="1.0" encoding="UTF-8"?> <svg xmlns="http://www.w3.org/2000/svg" width="60" height="60" viewBox="0 0 60 60" fill="none"> <path d="M47.1094 19.6875C46.766 24.4535 43.2305 28.125 39.375 28.125C35.5195 28.125 31.9781 24.4547 31.6406 19.6875C31.289 14.7293 34.7308 11.25 39.375 11.25C44.0191 11.25 47.4609 14.8195 47.1094 19.6875Z" stroke="#6C1E1E" stroke-width="3" stroke-linecap="round" stroke-linejoin="round"></path> <path d="M39.375 35.625C31.7379 35.625 24.3938 39.4184 22.5539 46.8059C22.3102 47.7832 22.9231 48.75 23.9274 48.75H54.8238C55.8281 48.75 56.4375 47.7832 56.1973 46.8059C54.3574 39.3 47.0133 35.625 39.375 35.625Z" stroke="#6C1E1E" stroke-width="3" stroke-miterlimit="10"></path> <path d="M23.4375 21.7898C23.1633 25.5961 20.3063 28.5938 17.2266 28.5938C14.1469 28.5938 11.2852 25.5973 11.0156 21.7898C10.7356 17.8301 13.5164 15 17.2266 15C20.9367 15 23.7176 17.9027 23.4375 21.7898Z" stroke="#6C1E1E" stroke-width="3" stroke-linecap="round" stroke-linejoin="round"></path> <path d="M24.1406 35.8594C22.0254 34.8902 19.6957 34.5176 17.2265 34.5176C11.1328 34.5176 5.26171 37.5469 3.791 43.4473C3.59764 44.2277 4.08749 45 4.88905 45H18.0469" stroke="#6C1E1E" stroke-width="3" stroke-miterlimit="10" stroke-linecap="round"></path> </svg> 