<?xml version="1.0" encoding="UTF-8"?> <svg xmlns="http://www.w3.org/2000/svg" width="31" height="31" viewBox="0 0 31 31" fill="none"> <path d="M21.9581 2.5831C23.6695 2.58821 25.3094 3.27033 26.5195 4.48049C27.7297 5.69064 28.4118 7.33049 28.4169 9.0419V21.9581C28.4118 23.6695 27.7297 25.3094 26.5195 26.5195C25.3094 27.7297 23.6695 28.4118 21.9581 28.4169H9.0419C7.33049 28.4118 5.69064 27.7297 4.48049 26.5195C3.27033 25.3094 2.58821 23.6695 2.5831 21.9581V9.0419C2.58821 7.33049 3.27033 5.69064 4.48049 4.48049C5.69064 3.27033 7.33049 2.58821 9.0419 2.5831H21.9581ZM21.9581 0H9.0419C4.06875 0 0 4.06875 0 9.0419V21.9581C0 26.9312 4.06875 31 9.0419 31H21.9581C26.9312 31 31 26.9312 31 21.9581V9.0419C31 4.06875 26.9312 0 21.9581 0Z" fill="white"></path> <path d="M23.8956 9.04181C23.5124 9.04181 23.1378 8.92818 22.8192 8.71528C22.5005 8.50239 22.2522 8.19979 22.1056 7.84576C21.9589 7.49173 21.9205 7.10216 21.9953 6.72632C22.0701 6.35048 22.2546 6.00525 22.5256 5.73429C22.7965 5.46333 23.1417 5.2788 23.5176 5.20404C23.8934 5.12928 24.283 5.16765 24.637 5.31429C24.9911 5.46094 25.2936 5.70927 25.5065 6.02789C25.7194 6.34651 25.8331 6.72111 25.8331 7.10431C25.8336 7.3589 25.7839 7.61109 25.6867 7.8464C25.5895 8.08172 25.4468 8.29553 25.2668 8.47555C25.0868 8.65557 24.873 8.79826 24.6377 8.89544C24.4024 8.99261 24.1502 9.04236 23.8956 9.04181Z" fill="white"></path> <path d="M15.5 10.3331C16.5219 10.3331 17.5209 10.6361 18.3706 11.2039C19.2203 11.7716 19.8825 12.5786 20.2736 13.5227C20.6647 14.4668 20.767 15.5057 20.5676 16.508C20.3683 17.5103 19.8762 18.4309 19.1535 19.1535C18.4309 19.8761 17.5103 20.3682 16.508 20.5676C15.5057 20.767 14.4668 20.6647 13.5227 20.2736C12.5786 19.8825 11.7716 19.2203 11.2039 18.3706C10.6361 17.5209 10.3331 16.5219 10.3331 15.5C10.3346 14.1301 10.8794 12.8167 11.8481 11.8481C12.8167 10.8794 14.1301 10.3346 15.5 10.3331ZM15.5 7.75C13.9672 7.75 12.4688 8.20453 11.1943 9.05611C9.91985 9.90769 8.92652 11.1181 8.33994 12.5342C7.75336 13.9503 7.59988 15.5086 7.89892 17.0119C8.19795 18.5153 8.93607 19.8962 10.0199 20.9801C11.1038 22.0639 12.4847 22.802 13.9881 23.1011C15.4914 23.4001 17.0497 23.2466 18.4658 22.6601C19.8819 22.0735 21.0923 21.0801 21.9439 19.8057C22.7955 18.5312 23.25 17.0328 23.25 15.5C23.25 13.4446 22.4335 11.4733 20.9801 10.0199C19.5267 8.56652 17.5554 7.75 15.5 7.75Z" fill="white"></path> </svg> 