<?xml version="1.0" encoding="UTF-8"?> <svg xmlns="http://www.w3.org/2000/svg" width="23" height="38" viewBox="0 0 23 38" fill="none"> <path d="M1.79985 38H20.9982C21.9905 38 22.7981 37.2008 22.7981 36.2188V1.78125C22.7981 0.799187 21.9905 0 20.9982 0H1.79985C0.807532 0 0 0.799187 0 1.78125V36.2188C0 37.2008 0.807532 38 1.79985 38ZM1.1999 1.78125C1.1999 1.62378 1.26311 1.47276 1.37562 1.36141C1.48813 1.25006 1.64073 1.1875 1.79985 1.1875H20.9982C21.1573 1.1875 21.3099 1.25006 21.4225 1.36141C21.535 1.47276 21.5982 1.62378 21.5982 1.78125V36.2188C21.5982 36.3762 21.535 36.5272 21.4225 36.6386C21.3099 36.7499 21.1573 36.8125 20.9982 36.8125H1.79985C1.64073 36.8125 1.48813 36.7499 1.37562 36.6386C1.26311 36.5272 1.1999 36.3762 1.1999 36.2188V1.78125Z" fill="white"></path> <path d="M2.99973 32.0625H19.7983C19.9574 32.0625 20.11 31.9999 20.2225 31.8886C20.3351 31.7772 20.3983 31.6262 20.3983 31.4688V6.53125C20.3983 6.37378 20.3351 6.22276 20.2225 6.11141C20.11 6.00006 19.9574 5.9375 19.7983 5.9375H2.99973C2.84061 5.9375 2.68801 6.00006 2.5755 6.11141C2.46299 6.22276 2.39978 6.37378 2.39978 6.53125V31.4688C2.39978 31.6262 2.46299 31.7772 2.5755 31.8886C2.68801 31.9999 2.84061 32.0625 2.99973 32.0625ZM3.59968 7.125H19.1984V30.875H3.59968V7.125Z" fill="white"></path> <path d="M11.999 35.625C12.6617 35.625 13.1989 35.0933 13.1989 34.4375C13.1989 33.7817 12.6617 33.25 11.999 33.25C11.3363 33.25 10.7991 33.7817 10.7991 34.4375C10.7991 35.0933 11.3363 35.625 11.999 35.625Z" fill="white"></path> <path d="M8.99921 4.75H13.7988C13.9579 4.75 14.1105 4.68744 14.223 4.57609C14.3355 4.46474 14.3988 4.31372 14.3988 4.15625C14.3988 3.99878 14.3355 3.84776 14.223 3.73641C14.1105 3.62506 13.9579 3.5625 13.7988 3.5625H8.99921C8.84009 3.5625 8.6875 3.62506 8.57498 3.73641C8.46247 3.84776 8.39926 3.99878 8.39926 4.15625C8.39926 4.31372 8.46247 4.46474 8.57498 4.57609C8.6875 4.68744 8.84009 4.75 8.99921 4.75Z" fill="white"></path> </svg> 