<?xml version="1.0" encoding="UTF-8"?> <svg xmlns="http://www.w3.org/2000/svg" width="55" height="55" viewBox="0 0 55 55" fill="none"> <g filter="url(#filter0_d)"> <mask id="path-2-inside-1" fill="white"> <path d="M11.4583 11.4583H41.25C43.0734 11.4583 44.8221 12.1826 46.1114 13.4719C47.4007 14.7612 48.125 16.5099 48.125 18.3333V38.9583C48.125 40.7816 47.4007 42.5303 46.1114 43.8196C44.8221 45.1089 43.0734 45.8333 41.25 45.8333H11.4583C9.63498 45.8333 7.8863 45.1089 6.59698 43.8196C5.30767 42.5303 4.58334 40.7816 4.58334 38.9583V18.3333C4.58334 16.5099 5.30767 14.7612 6.59698 13.4719C7.8863 12.1826 9.63498 11.4583 11.4583 11.4583ZM11.4583 13.7499C10.34 13.7499 9.31334 14.151 8.51814 14.8178L26.3542 26.3999L44.1902 14.8178C43.3665 14.1267 42.3253 13.7485 41.25 13.7499L26.3542 13.8178L11.4583 13.7499ZM26.3542 29.1316L7.18209 16.6833C6.97879 17.2096 6.87468 17.769 6.87501 18.3333V38.9583C6.87501 40.1738 7.3579 41.3396 8.21744 42.1992C9.07698 43.0587 10.2428 43.5416 11.4583 43.5416H41.25C42.4656 43.5416 43.6314 43.0587 44.4909 42.1992C45.3505 41.3396 45.8333 40.1738 45.8333 38.9583V18.3333C45.8333 17.7512 45.7256 17.1943 45.5263 16.6833L26.3542 29.1293V29.1316Z"></path> </mask> <path d="M11.4583 11.4583H41.25C43.0734 11.4583 44.8221 12.1826 46.1114 13.4719C47.4007 14.7612 48.125 16.5099 48.125 18.3333V38.9583C48.125 40.7816 47.4007 42.5303 46.1114 43.8196C44.8221 45.1089 43.0734 45.8333 41.25 45.8333H11.4583C9.63498 45.8333 7.8863 45.1089 6.59698 43.8196C5.30767 42.5303 4.58334 40.7816 4.58334 38.9583V18.3333C4.58334 16.5099 5.30767 14.7612 6.59698 13.4719C7.8863 12.1826 9.63498 11.4583 11.4583 11.4583ZM11.4583 13.7499C10.34 13.7499 9.31334 14.151 8.51814 14.8178L26.3542 26.3999L44.1902 14.8178C43.3665 14.1267 42.3253 13.7485 41.25 13.7499L26.3542 13.8178L11.4583 13.7499ZM26.3542 29.1316L7.18209 16.6833C6.97879 17.2096 6.87468 17.769 6.87501 18.3333V38.9583C6.87501 40.1738 7.3579 41.3396 8.21744 42.1992C9.07698 43.0587 10.2428 43.5416 11.4583 43.5416H41.25C42.4656 43.5416 43.6314 43.0587 44.4909 42.1992C45.3505 41.3396 45.8333 40.1738 45.8333 38.9583V18.3333C45.8333 17.7512 45.7256 17.1943 45.5263 16.6833L26.3542 29.1293V29.1316Z" fill="white"></path> <path d="M11.4583 11.4583V1.45825V11.4583ZM48.125 18.3333H58.125H48.125ZM48.125 38.9583H58.125H48.125ZM41.25 45.8333V55.8333V45.8333ZM11.4583 45.8333V55.8333V45.8333ZM4.58334 38.9583H-5.41666H4.58334ZM4.58334 18.3333H-5.41666H4.58334ZM11.4583 13.7499L11.5039 3.75002L11.4811 3.74992H11.4583V13.7499ZM8.51814 14.8178L2.09243 7.15557L-8.26593 15.8423L3.072 23.2047L8.51814 14.8178ZM26.3542 26.3999L20.908 34.7868L26.3542 38.3233L31.8003 34.7868L26.3542 26.3999ZM44.1902 14.8178L49.6364 23.2047L60.9713 15.8442L50.6179 7.1572L44.1902 14.8178ZM41.25 13.7499L41.2369 3.74993L41.2207 3.74995L41.2044 3.75002L41.25 13.7499ZM26.3542 29.1316L20.9085 37.5187L36.3542 47.5476V29.1316H26.3542ZM7.18209 16.6833L12.6278 8.29611L2.29343 1.58605L-2.14623 13.0801L7.18209 16.6833ZM6.87501 18.3333H16.875L16.875 18.3273L6.87501 18.3333ZM6.87501 38.9583H-3.12499H6.87501ZM45.5263 16.6833L54.8424 13.0487L50.3798 1.6101L40.0812 8.29566L45.5263 16.6833ZM26.3542 29.1293L20.9092 20.7417L16.3542 23.6987V29.1293H26.3542ZM26.3542 13.8178L26.3086 23.8177L26.3542 23.8179L26.3998 23.8177L26.3542 13.8178ZM11.4583 21.4583H41.25V1.45825H11.4583V21.4583ZM41.25 21.4583C40.4212 21.4583 39.6264 21.129 39.0403 20.543L53.1824 6.40083C50.0178 3.23615 45.7255 1.45825 41.25 1.45825V21.4583ZM39.0403 20.543C38.4543 19.9569 38.125 19.1621 38.125 18.3333H58.125C58.125 13.8577 56.3471 9.5655 53.1824 6.40083L39.0403 20.543ZM38.125 18.3333V38.9583H58.125V18.3333H38.125ZM38.125 38.9583C38.125 38.1295 38.4543 37.3346 39.0403 36.7485L53.1824 50.8907C56.3471 47.726 58.125 43.4338 58.125 38.9583H38.125ZM39.0403 36.7485C39.6264 36.1625 40.4212 35.8333 41.25 35.8333V55.8333C45.7255 55.8333 50.0178 54.0554 53.1824 50.8907L39.0403 36.7485ZM41.25 35.8333H11.4583V55.8333H41.25V35.8333ZM11.4583 35.8333C12.2871 35.8333 13.082 36.1625 13.6681 36.7485L-0.474083 50.8907C2.6906 54.0554 6.98283 55.8333 11.4583 55.8333V35.8333ZM13.6681 36.7485C14.2541 37.3346 14.5833 38.1295 14.5833 38.9583H-5.41666C-5.41666 43.4338 -3.63876 47.726 -0.474083 50.8907L13.6681 36.7485ZM14.5833 38.9583V18.3333H-5.41666V38.9583H14.5833ZM14.5833 18.3333C14.5833 19.1621 14.2541 19.9569 13.6681 20.543L-0.474083 6.40083C-3.63876 9.5655 -5.41666 13.8577 -5.41666 18.3333H14.5833ZM13.6681 20.543C13.082 21.129 12.2871 21.4583 11.4583 21.4583V1.45825C6.98281 1.45825 2.69059 3.23615 -0.474083 6.40083L13.6681 20.543ZM11.4583 3.74992C7.90937 3.74992 4.62558 5.03123 2.09243 7.15557L14.9438 22.4801C14.0011 23.2707 12.7707 23.7499 11.4583 23.7499V3.74992ZM3.072 23.2047L20.908 34.7868L31.8003 18.013L13.9643 6.43096L3.072 23.2047ZM31.8003 34.7868L49.6364 23.2047L38.7441 6.43096L20.908 18.013L31.8003 34.7868ZM50.6179 7.1572C47.9897 4.95207 44.6676 3.74543 41.2369 3.74993L41.2631 23.7499C39.983 23.7516 38.7433 23.3013 37.7626 22.4785L50.6179 7.1572ZM31.7999 20.7444L12.6278 8.29611L1.73637 25.0704L20.9085 37.5187L31.7999 20.7444ZM-2.14623 13.0801C-2.7942 14.7577 -3.12605 16.5408 -3.12499 18.3392L16.875 18.3273C16.8754 18.9973 16.7518 19.6615 16.5104 20.2864L-2.14623 13.0801ZM-3.12499 18.3333V38.9583H16.875V18.3333H-3.12499ZM-3.12499 38.9583C-3.12499 42.826 -1.58854 46.5353 1.14637 49.2702L15.2885 35.1281C16.3043 36.1439 16.875 37.5217 16.875 38.9583H-3.12499ZM1.14637 49.2702C3.88126 52.0051 7.59059 53.5416 11.4583 53.5416V33.5416C12.8949 33.5416 14.2727 34.1123 15.2885 35.1281L1.14637 49.2702ZM11.4583 53.5416H41.25V33.5416H11.4583V53.5416ZM41.25 53.5416C45.1178 53.5416 48.8271 52.0051 51.562 49.2702L37.4198 35.1281C38.4357 34.1123 39.8134 33.5416 41.25 33.5416V53.5416ZM51.562 49.2702C54.2969 46.5353 55.8333 42.826 55.8333 38.9583H35.8333C35.8333 37.5217 36.404 36.1439 37.4198 35.1281L51.562 49.2702ZM55.8333 38.9583V18.3333H35.8333V38.9583H55.8333ZM55.8333 18.3333C55.8333 16.5104 55.4947 14.7207 54.8424 13.0487L36.2101 20.3178C35.9566 19.6679 35.8333 18.992 35.8333 18.3333H55.8333ZM40.0812 8.29566L20.9092 20.7417L31.7992 37.5169L50.9713 25.0708L40.0812 8.29566ZM16.3542 29.1293V29.1316H36.3542V29.1293H16.3542ZM41.2044 3.75002L26.3086 3.81794L26.3998 23.8177L41.2956 23.7498L41.2044 3.75002ZM26.3998 3.81794L11.5039 3.75002L11.4127 23.7498L26.3086 23.8177L26.3998 3.81794Z" fill="white" mask="url(#path-2-inside-1)"></path> </g> <defs> <filter id="filter0_d" x="0.583344" y="11.4583" width="51.5417" height="42.375" filterUnits="userSpaceOnUse" color-interpolation-filters="sRGB"> <feFlood flood-opacity="0" result="BackgroundImageFix"></feFlood> <feColorMatrix in="SourceAlpha" type="matrix" values="0 0 0 0 0 0 0 0 0 0 0 0 0 0 0 0 0 0 127 0"></feColorMatrix> <feOffset dy="4"></feOffset> <feGaussianBlur stdDeviation="2"></feGaussianBlur> <feColorMatrix type="matrix" values="0 0 0 0 0 0 0 0 0 0 0 0 0 0 0 0 0 0 0.25 0"></feColorMatrix> <feBlend mode="normal" in2="BackgroundImageFix" result="effect1_dropShadow"></feBlend> <feBlend mode="normal" in="SourceGraphic" in2="effect1_dropShadow" result="shape"></feBlend> </filter> </defs> </svg> 