<?xml version="1.0" encoding="UTF-8"?> <svg xmlns="http://www.w3.org/2000/svg" width="290" height="103" viewBox="0 0 290 103" fill="none"> <path d="M0.976562 47.2734C0.976562 38.6797 2.73438 30.9323 6.25 24.0312C9.89583 17.1302 15.1693 11.6615 22.0703 7.625C28.9714 3.45833 37.2396 1.24479 46.875 0.984375V21.2969C38.6719 21.2969 32.5521 23.5755 28.5156 28.1328C24.6094 32.6901 22.6562 39.0703 22.6562 47.2734V51.9609H44.9219V93.3672H0.976562V47.2734ZM109.18 21.2969C100.977 21.2969 94.8568 23.5755 90.8203 28.1328C86.9141 32.6901 84.9609 39.0703 84.9609 47.2734V51.9609H107.227V93.3672H63.2812V47.2734C63.2812 38.6797 65.0391 30.9323 68.5547 24.0312C72.2005 17.1302 77.474 11.6615 84.375 7.625C91.276 3.45833 99.5443 1.24479 109.18 0.984375V21.2969ZM227.031 10.1641V56.2578C227.031 64.8516 225.208 72.599 221.562 79.5C218.047 86.401 212.839 91.9349 205.938 96.1016C199.036 100.138 190.768 102.286 181.133 102.547V82.2344C189.336 82.2344 195.391 79.9557 199.297 75.3984C203.333 70.8411 205.352 64.4609 205.352 56.2578V51.5703H183.086V10.1641H227.031ZM289.336 10.1641V56.2578C289.336 64.8516 287.513 72.599 283.867 79.5C280.352 86.401 275.143 91.9349 268.242 96.1016C261.341 100.138 253.073 102.286 243.438 102.547V82.2344C251.641 82.2344 257.695 79.9557 261.602 75.3984C265.638 70.8411 267.656 64.4609 267.656 56.2578V51.5703H245.391V10.1641H289.336Z" fill="#D7D6D5"></path> </svg> 