<?xml version="1.0" encoding="UTF-8"?> <svg xmlns="http://www.w3.org/2000/svg" width="74" height="78" viewBox="0 0 74 78" fill="none"> <path d="M38.0583 27.6721C35.8489 27.4506 33.626 27.9277 31.6941 29.0382C29.7621 30.1486 28.2155 31.838 27.266 33.8752C26.3165 35.9123 26.0105 38.1976 26.3899 40.4181C26.7693 42.6385 27.8156 44.6857 29.3855 46.2793C30.9554 47.8729 32.9722 48.9349 35.1597 49.3201C37.3472 49.7052 39.5985 49.3946 41.6054 48.4308C43.6123 47.4669 45.2766 45.897 46.3706 43.9359C47.4645 41.9748 47.9345 39.7184 47.7163 37.4757C47.4676 34.9616 46.3701 32.612 44.6099 30.8253C42.8498 29.0386 40.5351 27.9246 38.0583 27.6721ZM63.9869 38.55C63.98 39.7381 63.894 40.9244 63.7294 42.1008L71.3364 48.1572C71.6676 48.4359 71.8908 48.8248 71.9663 49.2547C72.0417 49.6847 71.9646 50.1279 71.7486 50.5056L64.5522 63.1444C64.3337 63.5184 63.992 63.8022 63.5876 63.9456C63.1831 64.089 62.7418 64.0829 62.3413 63.9283L54.7865 60.8404C54.3699 60.672 53.9187 60.6112 53.4732 60.6633C53.0277 60.7155 52.602 60.879 52.2341 61.1393C51.0811 61.9452 49.8695 62.6612 48.6098 63.281C48.2137 63.4764 47.8712 63.7678 47.6124 64.1294C47.3535 64.491 47.1864 64.9117 47.1257 65.3545L45.9934 73.5338C45.919 73.9658 45.6991 74.3581 45.3714 74.6438C45.0436 74.9294 44.6283 75.0907 44.1964 75.1H29.8036C29.3788 75.0925 28.9692 74.9384 28.6423 74.663C28.3153 74.3877 28.0905 74.0075 28.0049 73.585L26.8743 65.4177C26.8108 64.9701 26.6393 64.5453 26.3751 64.1812C26.1109 63.8171 25.7622 63.5249 25.3599 63.3306C24.1017 62.7141 22.8942 61.9961 21.7491 61.1837C21.3825 60.9247 20.9581 60.7624 20.5143 60.7115C20.0705 60.6605 19.6211 60.7224 19.2067 60.8916L11.6537 63.9779C11.2534 64.1326 10.8122 64.139 10.4077 63.9959C10.0033 63.8528 9.66155 63.5694 9.44275 63.1956L2.24637 50.5568C2.03001 50.1792 1.95269 49.7359 2.02818 49.3059C2.10367 48.8758 2.32707 48.4869 2.6586 48.2084L9.08773 43.0846C9.43995 42.8008 9.71677 42.4322 9.89307 42.0122C10.0694 41.5923 10.1396 41.1343 10.0973 40.6798C10.0367 39.9676 9.99968 39.2571 9.99968 38.5449C9.99968 37.8327 10.035 37.1324 10.0973 36.4356C10.1349 35.9839 10.0613 35.5297 9.88301 35.1141C9.70472 34.6985 9.42737 34.3344 9.07595 34.0547L2.65018 28.9309C2.32404 28.6509 2.10535 28.2634 2.03243 27.8362C1.95952 27.409 2.03705 26.9694 2.25141 26.5944L9.4478 13.9556C9.66634 13.5815 10.008 13.2978 10.4124 13.1544C10.8169 13.011 11.2582 13.0171 11.6587 13.1717L19.2135 16.2596C19.6301 16.428 20.0813 16.4888 20.5268 16.4367C20.9723 16.3845 21.398 16.221 21.7659 15.9607C22.9189 15.1548 24.1305 14.4388 25.3902 13.819C25.7863 13.6236 26.1288 13.3322 26.3876 12.9706C26.6465 12.609 26.8136 12.1882 26.8743 11.7455L28.0066 3.56618C28.081 3.13421 28.3009 2.74187 28.6286 2.4562C28.9564 2.17054 29.3717 2.00928 29.8036 2H44.1964C44.6212 2.00746 45.0308 2.16157 45.3577 2.43695C45.6847 2.71233 45.9095 3.09254 45.9951 3.51495L47.1257 11.6823C47.1892 12.1299 47.3607 12.5547 47.6249 12.9188C47.8891 13.2829 48.2378 13.5751 48.6401 13.7694C49.8983 14.3859 51.1058 15.1039 52.2509 15.9163C52.6175 16.1753 53.0419 16.3375 53.4857 16.3885C53.9295 16.4395 54.3789 16.3776 54.7933 16.2084L62.3463 13.1221C62.7466 12.9674 63.1878 12.961 63.5923 13.1041C63.9967 13.2472 64.3384 13.5306 64.5573 13.9044L71.7536 26.5431C71.97 26.9208 72.0473 27.364 71.9718 27.7941C71.8963 28.2242 71.6729 28.6131 71.3414 28.8916L64.9123 34.0154C64.5585 34.2983 64.2801 34.6665 64.1023 35.0865C63.9245 35.5065 63.853 35.965 63.8943 36.4202C63.9498 37.1273 63.9869 37.8378 63.9869 38.55Z" stroke="#6C1E1E" stroke-width="4" stroke-linecap="round" stroke-linejoin="round"></path> </svg> 