<?xml version="1.0" encoding="UTF-8"?> <svg xmlns="http://www.w3.org/2000/svg" width="72" height="72" viewBox="0 0 72 72" fill="none"> <path d="M61.4067 25.8904C60.6909 26.6016 59.7228 27.0008 58.7138 27.0008C57.7047 27.0008 56.7366 26.6016 56.0208 25.8904L52.8595 22.7278C52.1481 22.0124 51.7487 21.0444 51.7487 20.0355C51.7487 19.0266 52.1481 18.0586 52.8595 17.3432L60.0159 10.1868C60.0297 10.1731 60.0399 10.1562 60.0457 10.1376C60.0514 10.119 60.0525 10.0993 60.0489 10.0801C60.0453 10.061 60.0371 10.0431 60.025 10.0278C60.0129 10.0126 59.9972 10.0006 59.9794 9.99276C55.3613 8.01558 49.372 9.02105 45.5695 12.7968C41.9302 16.4095 41.7234 21.8348 43.0566 26.5781C43.246 27.2518 43.2455 27.9649 43.0552 28.6384C42.8648 29.3119 42.4921 29.9197 41.978 30.3946L17.6498 53.0015C17.0692 53.5215 16.6007 54.1544 16.2729 54.8616C15.9452 55.5688 15.7651 56.3354 15.7438 57.1145C15.7224 57.8936 15.8601 58.669 16.1486 59.393C16.4371 60.1171 16.8702 60.7748 17.4215 61.3258C17.9728 61.8768 18.6307 62.3095 19.3549 62.5976C20.0791 62.8857 20.8545 63.0231 21.6336 63.0013C22.4128 62.9795 23.1793 62.7991 23.8863 62.471C24.5933 62.1429 25.226 61.674 25.7456 61.0931L48.548 36.7228C49.0178 36.2172 49.6165 35.8492 50.2798 35.6584C50.9431 35.4676 51.6459 35.4612 52.3125 35.64C57.0178 36.8971 62.3658 36.6609 65.963 33.1171C69.8288 29.309 70.6627 22.5787 68.7895 18.727C68.781 18.7101 68.7687 18.6954 68.7534 18.6843C68.7382 18.6731 68.7205 18.6657 68.7018 18.6627C68.6831 18.6596 68.664 18.6611 68.646 18.6669C68.628 18.6727 68.6117 18.6827 68.5983 18.696L61.4067 25.8904Z" stroke="#6C1E1E" stroke-width="3" stroke-miterlimit="10" stroke-linecap="round"></path> <path d="M31.5 39.9375C29.0419 37.5469 27.9155 36.4346 27.1406 35.678C26.7528 35.2928 26.4983 34.7937 26.414 34.2536C26.3298 33.7136 26.4203 33.1607 26.6723 32.6757C26.8052 32.4371 26.9709 32.2184 27.1645 32.026L29.3695 29.8758C29.5977 29.6472 29.8661 29.4627 30.1612 29.3316C30.6272 29.1254 31.1442 29.0636 31.6456 29.1544C32.147 29.2451 32.6097 29.4842 32.9737 29.8407C33.7401 30.5846 35.1436 31.95 37.672 34.4138" stroke="#6C1E1E" stroke-width="3" stroke-linecap="round" stroke-linejoin="round"></path> <path d="M44.588 40.964C50.3466 46.3218 57.3314 52.6738 60.0567 54.9435C60.2606 55.1115 60.427 55.3203 60.5452 55.5565C60.6635 55.7927 60.731 56.051 60.7435 56.3149C60.7559 56.5787 60.713 56.8422 60.6175 57.0885C60.522 57.3348 60.376 57.5583 60.1889 57.7448L55.4949 62.4374C55.3038 62.6241 55.0768 62.7699 54.8276 62.8661C54.5784 62.9622 54.3122 63.0066 54.0453 62.9966C53.7784 62.9866 53.5163 62.9224 53.2749 62.8079C53.0336 62.6934 52.8181 62.531 52.6416 62.3305C50.317 59.6334 44.0508 52.8932 38.6817 47.2837" stroke="#6C1E1E" stroke-width="3" stroke-linecap="round" stroke-linejoin="round"></path> <path d="M2.43845 27.2109L6.57423 23.1694C6.6374 23.1073 6.71239 23.0585 6.79476 23.0259C6.87713 22.9933 6.9652 22.9775 7.05376 22.9795C7.23229 22.9776 7.40446 23.0458 7.53329 23.1694V23.1694C7.68306 23.3175 7.86462 23.4296 8.06418 23.4971C8.26374 23.5646 8.47606 23.5857 8.68501 23.5589C9.22361 23.4999 9.79876 23.3339 10.1714 22.9795C11.0152 22.1639 10.0392 20.5566 10.7817 19.5286C11.6307 18.4033 12.5604 17.3411 13.5633 16.3505C14.407 15.5236 17.7595 12.368 23.393 10.0997C25.1946 9.37149 27.1198 8.99809 29.063 9.00001C32.2397 9.00001 34.688 10.4063 35.5683 11.2036C36.0967 11.7063 36.5804 12.254 37.0139 12.8405C36.5905 12.6844 36.158 12.5543 35.7188 12.4509C34.7949 12.255 33.8474 12.1953 32.9063 12.2738C31.0317 12.427 28.7705 13.2947 27.5625 14.2425C25.6078 15.7894 24.7683 17.8594 24.6361 20.5299C24.5405 22.5155 25.0186 23.6377 29.7127 28.3331C29.8731 28.5122 29.9578 28.7466 29.9489 28.9868C29.9399 29.2271 29.8381 29.4546 29.6649 29.6213L27.1027 32.1525C26.9241 32.3276 26.6846 32.4268 26.4344 32.4291C26.1843 32.4315 25.943 32.3369 25.7611 32.1652C22.6758 29.0798 20.6072 27.5119 19.433 26.7989C18.2588 26.0859 17.3138 25.8849 16.8595 25.8356C15.9675 25.7472 15.0699 25.9374 14.2903 26.3799C14.1535 26.455 14.0285 26.5498 13.9191 26.6611C13.7365 26.8498 13.5931 27.0728 13.4972 27.3173C13.4012 27.5617 13.3547 27.8228 13.3602 28.0853C13.3657 28.3478 13.4231 28.6067 13.5292 28.8469C13.6352 29.0871 13.7878 29.3039 13.9781 29.4848L14.2186 29.7099C14.281 29.7705 14.3307 29.8431 14.3645 29.9233C14.3984 30.0035 14.4159 30.0897 14.4159 30.1767C14.4159 30.2638 14.3984 30.35 14.3645 30.4301C14.3307 30.5103 14.281 30.5829 14.2186 30.6436L10.087 34.6781C10.0245 34.7415 9.94973 34.7916 9.86734 34.8254C9.78494 34.8593 9.69657 34.8761 9.60751 34.875C9.42901 34.8768 9.2569 34.8086 9.12798 34.6852L2.43845 28.1559C2.31738 28.0284 2.24988 27.8593 2.24988 27.6834C2.24988 27.5076 2.31738 27.3385 2.43845 27.2109V27.2109Z" stroke="#6C1E1E" stroke-width="3" stroke-linecap="round" stroke-linejoin="round"></path> </svg> 