<?xml version="1.0" encoding="UTF-8"?> <svg xmlns="http://www.w3.org/2000/svg" width="71" height="71" viewBox="0 0 71 71" fill="none"> <path d="M45.2209 32.1579L38.634 42.6276C38.3645 43.0011 38.0368 43.3289 37.6633 43.5983C36.7617 44.2273 35.6484 44.4754 34.565 44.2886C33.4816 44.1019 32.5156 43.4954 31.8767 42.6008C31.2377 41.7062 30.9773 40.5958 31.152 39.5104C31.3267 38.425 31.9224 37.4523 32.8098 36.8034L43.2795 30.2165C43.5175 30.0506 43.8007 29.9617 44.0908 29.9617C44.3809 29.9617 44.664 30.0506 44.902 30.2165C45.2009 30.4323 45.4022 30.7576 45.462 31.1214C45.5217 31.4852 45.4351 31.8578 45.2209 32.1579Z" fill="#6C1E1E"></path> <path d="M35.5 8.875C18.3463 8.875 4.43747 22.7699 4.43747 39.9236C4.42695 47.513 7.20541 54.8416 12.2447 60.5164C12.3972 60.6828 12.5359 60.8492 12.6884 61.0018C13.0166 61.357 13.415 61.6403 13.8583 61.8336C14.3016 62.0269 14.7802 62.126 15.2639 62.1247C15.7475 62.1234 16.2256 62.0217 16.6678 61.826C17.1101 61.6303 17.5069 61.3449 17.8332 60.9879C20.0817 58.5443 22.8128 56.5937 25.8537 55.2595C28.8946 53.9252 32.1792 53.2363 35.5 53.2363C38.8207 53.2363 42.1053 53.9252 45.1462 55.2595C48.1871 56.5937 50.9182 58.5443 53.1668 60.9879C53.493 61.3449 53.8898 61.6303 54.3321 61.826C54.7744 62.0217 55.2525 62.1234 55.7361 62.1247C56.2197 62.126 56.6983 62.0269 57.1417 61.8336C57.585 61.6403 57.9833 61.357 58.3115 61.0018L58.7552 60.5164C63.7945 54.8416 66.573 47.513 66.5625 39.9236C66.5625 22.7699 52.6537 8.875 35.5 8.875Z" stroke="#6C1E1E" stroke-width="4" stroke-linecap="round" stroke-linejoin="round"></path> <path d="M35.5 17.75V22.1875" stroke="#D7D6D5" stroke-width="5.625" stroke-miterlimit="10" stroke-linecap="round"></path> <path d="M57.6875 39.9375H53.25" stroke="#D7D6D5" stroke-width="5.625" stroke-miterlimit="10" stroke-linecap="round"></path> <path d="M17.75 39.9375H13.3125" stroke="#D7D6D5" stroke-width="5.625" stroke-miterlimit="10" stroke-linecap="round"></path> <path d="M22.9488 27.3864L19.8107 24.2483" stroke="#D7D6D5" stroke-width="5.625" stroke-miterlimit="10" stroke-linecap="round"></path> <path d="M48.0512 27.3864L51.1893 24.2483" stroke="#D7D6D5" stroke-width="5.625" stroke-miterlimit="10" stroke-linecap="round"></path> </svg> 