<?xml version="1.0" encoding="UTF-8"?> <svg xmlns="http://www.w3.org/2000/svg" width="33" height="28" viewBox="0 0 33 28" fill="none"> <path d="M17.4211 0.349926C16.9171 -0.116642 16.0838 -0.116642 15.5798 0.349926L0.21028 9.69092C0.146219 9.72989 0.0932141 9.78485 0.0563804 9.85047C0.0195466 9.9161 0.000128371 9.99018 0 10.0656V26.6292C0 27.3846 0.613461 28 1.36769 28H31.6323C32.3865 28 33 27.3846 33 26.6292V10.0656C32.9999 9.99018 32.9805 9.9161 32.9436 9.85047C32.9068 9.78485 32.8538 9.72989 32.7897 9.69092L17.4211 0.349926ZM16.069 1.07385C16.0989 1.05551 16.1266 1.03377 16.1516 1.00907C16.1972 0.962994 16.2515 0.926438 16.3112 0.901496C16.3709 0.876554 16.4349 0.863715 16.4996 0.863715C16.5642 0.863715 16.6282 0.876554 16.6879 0.901496C16.7476 0.926438 16.8019 0.962994 16.8476 1.00907C16.8727 1.03357 16.9004 1.05529 16.9301 1.07385L31.8991 10.1724L21.0566 16.6816C20.9645 16.7442 20.8996 16.8399 20.8753 16.9492C20.8509 17.0584 20.869 17.1729 20.9258 17.2692C20.9826 17.3654 21.0738 17.4362 21.1806 17.4669C21.2875 17.4976 21.402 17.486 21.5007 17.4344L32.1406 11.053V26.5968L17.4254 16.735C16.9579 16.3594 16.0403 16.3594 15.6041 16.7131L0.859366 26.5924V11.053L11.4985 17.4344C11.5976 17.4938 11.716 17.5112 11.8278 17.4826C11.9396 17.454 12.0356 17.3819 12.0946 17.2821C12.1536 17.1822 12.1708 17.0629 12.1424 16.9503C12.1141 16.8377 12.0425 16.741 11.9434 16.6816L1.10006 10.1724L16.069 1.07385ZM31.3499 27.1246H1.64314L16.1159 17.4204C16.2663 17.2996 16.7346 17.3004 16.9145 17.4423L31.3499 27.1246Z" fill="white"></path> </svg> 