<?xml version="1.0" encoding="UTF-8"?> <svg xmlns="http://www.w3.org/2000/svg" width="32" height="34" viewBox="0 0 32 34" fill="none"> <path d="M15.1556 0.00276904C12.4512 0.0396025 6.63203 0.487271 3.37686 3.49486C0.960424 5.91737 0.116076 9.4888 0.0177322 13.9116C-0.0665622 18.3175 -0.164906 26.5909 7.74472 28.8448V32.2731C7.74472 32.2731 7.69133 33.6473 8.59047 33.9306C9.70035 34.2848 10.3326 33.2237 11.3862 32.0904L13.3531 29.852C18.762 30.3054 22.9065 29.2584 23.3841 29.1026C24.48 28.7484 30.663 27.9537 31.6745 19.6789C32.7141 11.135 31.1687 5.75162 28.387 3.31495L28.373 3.31211C27.53 2.53294 24.1582 0.0537692 16.6139 0.0254358C16.6139 0.0254358 16.0575 -0.009981 15.1556 0.00276904ZM15.2497 2.40686C16.0154 2.40261 16.486 2.43519 16.486 2.43519C22.8643 2.44936 25.9144 4.3902 26.6309 5.04187C28.9771 7.06629 30.1825 11.9212 29.3002 19.0556C28.4572 25.9689 23.4417 26.4081 22.5145 26.7056C22.1211 26.8331 18.4684 27.7398 13.8715 27.4423C13.8715 27.4423 10.4449 31.6087 9.37722 32.6854C9.20863 32.8695 9.01194 32.9262 8.8855 32.8979C8.70286 32.8554 8.64667 32.6287 8.66072 32.317L8.68881 26.6234C1.98601 24.7534 2.37938 17.6956 2.44962 14.0122C2.53392 10.3289 3.22232 7.30854 5.25944 5.26854C8.00884 2.76103 12.9513 2.42103 15.2483 2.40686H15.2497ZM15.7555 6.09021C15.7002 6.09002 15.6454 6.10084 15.5943 6.12204C15.5432 6.14324 15.4967 6.17442 15.4576 6.21377C15.4184 6.25312 15.3873 6.29988 15.3661 6.35136C15.3449 6.40285 15.334 6.45805 15.334 6.51379C15.334 6.62651 15.3784 6.73461 15.4575 6.81431C15.5365 6.89401 15.6437 6.93879 15.7555 6.93879C16.8 6.9187 17.838 7.1074 18.8098 7.49402C19.7816 7.88063 20.6678 8.45749 21.4173 9.1913C22.9486 10.693 23.6946 12.7046 23.7227 15.3397C23.7227 15.3955 23.7336 15.4507 23.7548 15.5023C23.776 15.5539 23.807 15.6007 23.8462 15.6402C23.8853 15.6796 23.9318 15.7109 23.9829 15.7323C24.034 15.7537 24.0888 15.7647 24.1442 15.7647V15.7519C24.256 15.7519 24.3632 15.7071 24.4422 15.6274C24.5213 15.5477 24.5657 15.4396 24.5657 15.3269C24.6178 14.0877 24.4192 12.8508 23.982 11.6915C23.5449 10.5322 22.8782 9.47473 22.0228 8.58355C20.3509 6.94021 18.2408 6.09021 15.7541 6.09021H15.7555ZM10.2005 7.06771C9.90172 7.02478 9.59732 7.08467 9.33648 7.23771H9.31962C8.7436 7.57771 8.21255 8.00271 7.70678 8.56938C7.32746 9.02271 7.11532 9.47463 7.05912 9.9138C7.02606 10.1714 7.05006 10.4331 7.12937 10.6802L7.15747 10.6944C7.5905 11.9781 8.15554 13.2126 8.84335 14.3777C9.73492 16.0095 10.8303 17.5192 12.1027 18.87L12.1449 18.9267L12.2011 18.9692L12.2432 19.0117L12.2854 19.0542C13.6302 20.3405 15.1314 21.4496 16.753 22.355C18.6075 23.375 19.7342 23.8567 20.4085 24.055V24.0692C20.6052 24.1258 20.7851 24.1542 20.9677 24.1542C21.5433 24.1118 22.0883 23.8764 22.5159 23.4855C23.0638 22.9897 23.4993 22.44 23.8225 21.8592V21.845C24.1456 21.2358 24.0332 20.6536 23.5696 20.2569C22.6352 19.4327 21.6236 18.702 20.549 18.0752C19.8325 17.6786 19.102 17.9194 18.8069 18.3161L18.1747 19.1222C17.8516 19.5188 17.2616 19.4622 17.2616 19.4622L17.2447 19.4763C12.8614 18.343 11.6953 13.8677 11.6953 13.8677C11.6953 13.8677 11.6391 13.2586 12.0465 12.9469L12.8333 12.3094C13.2126 11.9977 13.4795 11.2611 13.0721 10.5386C12.4514 9.45442 11.7267 8.43427 10.9086 7.49271C10.7306 7.27014 10.4794 7.11934 10.2005 7.06771ZM16.4846 8.32855C16.3729 8.32892 16.2658 8.37406 16.187 8.45403C16.1082 8.534 16.0642 8.64225 16.0646 8.75496C16.0649 8.86768 16.1097 8.97563 16.189 9.05507C16.2683 9.13451 16.3757 9.17892 16.4874 9.17855C17.8934 9.20316 19.2323 9.78905 20.2104 10.8077C20.6518 11.2986 20.991 11.8737 21.2082 12.4991C21.4254 13.1244 21.516 13.7873 21.4749 14.4486C21.4752 14.561 21.5198 14.6688 21.5988 14.7482C21.6778 14.8276 21.7848 14.8722 21.8963 14.8722L21.9104 14.8892C21.9659 14.8892 22.0208 14.8781 22.072 14.8567C22.1232 14.8352 22.1698 14.8038 22.2089 14.7642C22.2481 14.7246 22.2791 14.6775 22.3002 14.6258C22.3213 14.5741 22.332 14.5187 22.3319 14.4627C22.374 12.7769 21.8542 11.3602 20.8286 10.2269C19.803 9.09355 18.37 8.45605 16.5436 8.32855C16.524 8.32716 16.5043 8.32716 16.4846 8.32855ZM17.173 10.6221C17.1167 10.6205 17.0605 10.63 17.0078 10.6502C16.9551 10.6704 16.9069 10.7009 16.8658 10.7399C16.8248 10.7789 16.7918 10.8257 16.7687 10.8775C16.7456 10.9294 16.7329 10.9853 16.7312 11.0422C16.7295 11.099 16.739 11.1556 16.759 11.2088C16.7791 11.2619 16.8093 11.3106 16.848 11.3519C16.8866 11.3933 16.933 11.4266 16.9845 11.4499C17.0359 11.4732 17.0914 11.486 17.1478 11.4877C18.5386 11.5586 19.213 12.2669 19.2973 13.7261C19.3009 13.8363 19.3469 13.9408 19.4256 14.0175C19.5042 14.0941 19.6093 14.137 19.7187 14.1369H19.7328C19.7894 14.1351 19.845 14.1219 19.8965 14.0979C19.9479 14.074 19.994 14.0398 20.032 13.9975C20.07 13.9552 20.0992 13.9056 20.1178 13.8516C20.1364 13.7977 20.144 13.7405 20.1402 13.6836C20.0419 11.7852 19.0163 10.7213 17.1899 10.6221C17.1843 10.622 17.1787 10.622 17.173 10.6221Z" fill="white"></path> </svg> 