<?xml version="1.0" encoding="UTF-8"?> <svg xmlns="http://www.w3.org/2000/svg" width="36" height="36" viewBox="0 0 36 36" fill="none"> <path d="M25.56 0H10.44C8.658 0 7.2 1.51875 7.2 3.375V32.625C7.2 34.4813 8.658 36 10.44 36H25.56C27.342 36 28.8 34.4813 28.8 32.625V3.375C28.8 1.51875 27.342 0 25.56 0ZM13.68 1.6875H22.32V2.8125H13.68V1.6875ZM18 33.75C17.4271 33.75 16.8777 33.5129 16.4726 33.091C16.0676 32.669 15.84 32.0967 15.84 31.5C15.84 30.9033 16.0676 30.331 16.4726 29.909C16.8777 29.4871 17.4271 29.25 18 29.25C18.5729 29.25 19.1223 29.4871 19.5273 29.909C19.9324 30.331 20.16 30.9033 20.16 31.5C20.16 32.0967 19.9324 32.669 19.5273 33.091C19.1223 33.5129 18.5729 33.75 18 33.75ZM26.64 27H9.36V4.5H26.64V27Z" fill="white"></path> </svg> 